<?xml version="1.0" encoding="UTF-8" standalone="no"?>
<!-- Generator: Adobe Illustrator 16.0.0, SVG Export Plug-In . SVG Version: 6.00 Build 0)  -->

<svg
   xmlns:dc="http://purl.org/dc/elements/1.1/"
   xmlns:cc="http://creativecommons.org/ns#"
   xmlns:rdf="http://www.w3.org/1999/02/22-rdf-syntax-ns#"
   xmlns:svg="http://www.w3.org/2000/svg"
   xmlns="http://www.w3.org/2000/svg"
   xmlns:sodipodi="http://sodipodi.sourceforge.net/DTD/sodipodi-0.dtd"
   xmlns:inkscape="http://www.inkscape.org/namespaces/inkscape"
   version="1.1"
   id="Capa_1"
   x="0px"
   y="0px"
   width="275.725px"
   height="275.725px"
   viewBox="0 0 275.725 275.725"
   style="enable-background:new 0 0 275.725 275.725;"
   xml:space="preserve"
   sodipodi:docname="pause-play-button.svg"
   inkscape:version="0.92.3 (2405546, 2018-03-11)"><metadata
   id="metadata132"><rdf:RDF><cc:Work
       rdf:about=""><dc:format>image/svg+xml</dc:format><dc:type
         rdf:resource="http://purl.org/dc/dcmitype/StillImage" /></cc:Work></rdf:RDF></metadata><defs
   id="defs130" /><sodipodi:namedview
   pagecolor="#ffffff"
   bordercolor="#666666"
   borderopacity="1"
   objecttolerance="10"
   gridtolerance="10"
   guidetolerance="10"
   inkscape:pageopacity="0"
   inkscape:pageshadow="2"
   inkscape:window-width="1920"
   inkscape:window-height="997"
   id="namedview128"
   showgrid="false"
   inkscape:zoom="1.0630003"
   inkscape:cx="171.26749"
   inkscape:cy="109.71549"
   inkscape:window-x="0"
   inkscape:window-y="28"
   inkscape:window-maximized="0"
   inkscape:current-layer="Capa_1" />
<g
   id="g95">
	<g
   id="g93">
		<path
   d="M137.862,0C61.726,0,0,61.726,0,137.862c0,76.14,61.726,137.862,137.862,137.862c76.139,0,137.862-61.723,137.862-137.862    C275.725,61.726,214.001,0,137.862,0z M125.639,148.395L75.67,177.051c-8.606,4.93-15.583,0.891-15.583-9.041v-57.115    c0-9.926,6.978-13.973,15.583-9.03l49.969,28.656C134.245,135.455,134.245,143.455,125.639,148.395z M161.371,166.694    c0,9.922-5.442,17.968-12.169,17.968c-6.722,0-12.171-8.046-12.171-17.968V112.21c0-9.921,5.449-17.971,12.171-17.971    c6.727,0,12.169,8.05,12.169,17.971V166.694z M211.878,166.694c0,9.922-5.447,17.968-12.174,17.968    c-6.726,0-12.174-8.046-12.174-17.968V112.21c0-9.921,5.448-17.971,12.174-17.971c6.727,0,12.174,8.05,12.174,17.971V166.694z"
   id="path91"
   style="fill:#838383;fill-opacity:1" />
	</g>
</g>
<g
   id="g97">
</g>
<g
   id="g99">
</g>
<g
   id="g101">
</g>
<g
   id="g103">
</g>
<g
   id="g105">
</g>
<g
   id="g107">
</g>
<g
   id="g109">
</g>
<g
   id="g111">
</g>
<g
   id="g113">
</g>
<g
   id="g115">
</g>
<g
   id="g117">
</g>
<g
   id="g119">
</g>
<g
   id="g121">
</g>
<g
   id="g123">
</g>
<g
   id="g125">
</g>
</svg>