/* XPM */
static char * panel_xpm[] = {
"30 30 3 1",
" 	c None",
".	c #2D2D2D",
"+	c #0A97D8",
"..............................",
"..............................",
"..............................",
"..............................",
"..............................",
"..............................",
"..............................",
"..............................",
"..............................",
"..............................",
"..............................",
"..............................",
"..............................",
"..............................",
"..............................",
"..............................",
"..............................",
"..............................",
"..............................",
"..............................",
"..............................",
"..............................",
"..............................",
"..............................",
"..............................",
"..............................",
"..............................",
"++++++++++++++++++++++++++++++",
"++++++++++++++++++++++++++++++",
"++++++++++++++++++++++++++++++"};
