/* XPM */
static char * title_xpm[] = {
"24 24 3 1",
" 	c None",
".	c #444444",
"+	c #0A97D8",
"........................",
"........................",
"........................",
"........................",
"........................",
"........................",
"........................",
"........................",
"........................",
"........................",
"........................",
"........................",
"........................",
"........................",
"........................",
"........................",
"........................",
"........................",
"........................",
"........................",
"........................",
"++++++++++++++++++++++++",
"++++++++++++++++++++++++",
"........................"};
