/* XPM */
static char * tbarufcs_xpm[] = {
"25 25 9 1",
" 	c None",
".	c #3F3E3B",
"+	c #323232",
"@	c #313131",
"#	c #303030",
"$	c #2F2F2F",
"%	c #2C2C2C",
"&	c #2B2B2B",
"*	c #2E2E2E",
".........................",
"+++++++++++++++++++++++++",
"@@@@@@@@@@@@@@@@@@@@@@@@@",
"###$$$$$####$$###$$$##$$#",
"%%%%%%%%%%%%%%%%%%%%%%%%%",
"&&&&&&&&&&&&&&&&&&&&&&&&&",
"&&&&&&&&&&&&&&&&&&&&&&&&&",
"&&&&&&&&&&&&&&&&&&&&&&&&&",
"%%%%%%%%%%%%%%%%%%%%%%%%%",
"%%%%%%%%%%%%%%%%%%%%%%%%%",
"%%%%%%%%%%%%%%%%%%%%%%%%%",
"%%%%%%%%%%%%%%%%%%%%%%%%%",
"*************************",
"#########################",
"#########################",
"#########################",
"@@@@@@@@@@@@@@@@@@@@@@@@@",
"@@@@@@@@@@@@@@@@@@@@@@@@@",
"@@@@@@@@@@@@@@@@@@@@@@@@@",
"@@@@@@@@@@@@@@@@@@@@@@@@@",
"#########################",
"#########################",
"#########################",
"%%%%%%%%%%%%%%%%%%%%%%%%%",
"........................."};
