/* XPM */
static char * maxa_xpm[] = {
"16 16 3 1",
" 	c None",
".	c #2C2C2C",
"+	c #D8D8D8",
"................",
"................",
"................",
"................",
".......+++++....",
".......+...+....",
".....+++...+....",
".....+++...+....",
".....+++++++....",
".....+++++......",
".....+++++......",
"................",
"................",
"................",
"................",
"................"};
